<?xml version="1.0" standalone="no"?>
<!DOCTYPE svg PUBLIC "-//W3C//DTD SVG 20010904//EN"
 "http://www.w3.org/TR/2001/REC-SVG-20010904/DTD/svg10.dtd">
<svg version="1.0" xmlns="http://www.w3.org/2000/svg"
 width="256.000000pt" height="256.000000pt" viewBox="0 0 256.000000 256.000000"
 preserveAspectRatio="xMidYMid meet">
<metadata>
Created by potrace 1.16, written by Peter Selinger 2001-2019
</metadata>
<g transform="translate(0.000000,256.000000) scale(0.100000,-0.100000)"
fill="#000000" stroke="none">
<path d="M820 2151 c-219 -71 -344 -316 -310 -607 11 -94 46 -257 69 -317 17
-43 12 -46 -9 -7 -34 62 -89 245 -101 339 -7 50 -17 91 -23 91 -28 0 -101 -48
-142 -93 -90 -99 -135 -240 -118 -367 9 -61 11 -65 34 -62 114 12 232 3 360
-28 220 -52 244 -56 270 -50 56 13 93 145 105 375 3 66 9 135 12 153 5 29 3
32 -18 32 -13 0 -44 -9 -68 -21 -43 -19 -72 -14 -56 10 11 19 83 51 114 51 34
0 33 -3 52 158 13 109 24 137 51 127 24 -10 25 -18 15 -164 -8 -110 -7 -135 4
-142 25 -15 99 -10 139 11 49 25 60 25 60 1 0 -32 -83 -66 -156 -64 l-61 2 -7
-232 c-6 -204 1 -387 19 -447 2 -8 9 -34 15 -57 20 -79 59 -49 107 81 10 26
16 83 18 156 3 162 35 239 113 280 29 14 60 8 89 -19 l22 -21 5 48 c24 196 62
340 111 413 33 51 66 64 108 44 104 -49 114 -221 25 -405 -22 -46 -53 -86
-106 -138 l-76 -73 12 -162 c14 -193 26 -247 55 -247 11 0 49 28 86 62 70 66
124 92 214 104 l48 7 40 79 c50 100 90 206 120 323 31 121 34 332 5 415 -49
144 -132 251 -233 298 -77 36 -193 38 -265 5 -58 -27 -137 -99 -179 -164 -35
-55 -79 -177 -79 -219 0 -16 -4 -32 -10 -35 -6 -4 -10 9 -10 32 0 55 -26 148
-60 218 -68 139 -189 227 -319 232 -36 1 -77 -1 -91 -6z"/>
<path d="M1587 1762 c-39 -43 -75 -204 -85 -379 -4 -76 -3 -123 2 -123 6 0 32
23 58 52 79 83 138 229 138 339 0 96 -67 162 -113 111z"/>
<path d="M1293 1308 c-33 -37 -46 -93 -41 -182 5 -83 31 -166 52 -166 20 0 74
62 95 110 25 56 28 167 6 210 -27 53 -78 65 -112 28z"/>
<path d="M926 1105 c-22 -54 -58 -85 -98 -85 -16 0 -100 18 -186 41 -163 43
-296 58 -386 45 -58 -9 -58 -17 -7 -122 47 -97 90 -152 161 -205 99 -74 143
-92 455 -184 89 -27 91 -28 165 -108 113 -123 192 -195 221 -202 33 -8 107 47
256 189 126 120 234 247 316 371 l59 90 -29 3 c-71 7 -204 -72 -239 -142 -26
-50 -55 -76 -85 -76 -51 0 -90 78 -104 213 l-7 65 -27 -51 c-46 -89 -109 -100
-157 -30 l-22 33 -16 -67 c-20 -76 -38 -114 -68 -143 -30 -27 -79 -26 -106 3
-31 33 -62 163 -70 294 l-7 113 -19 -45z"/>
</g>
</svg>
